<?xml version="1.0" standalone="no"?>
<!DOCTYPE svg PUBLIC "-//W3C//DTD SVG 20010904//EN"
 "http://www.w3.org/TR/2001/REC-SVG-20010904/DTD/svg10.dtd">
<svg version="1.0" xmlns="http://www.w3.org/2000/svg"
 width="338.000000pt" height="233.000000pt" viewBox="0 0 338.000000 233.000000"
 preserveAspectRatio="xMidYMid meet">

<g transform="translate(0.000000,233.000000) scale(0.100000,-0.100000)"
fill="#000000" stroke="none">
<path d="M110 1790 l0 -460 215 0 215 0 0 85 0 85 -120 0 -120 0 0 375 0 375
-95 0 -95 0 0 -460z"/>
<path d="M1836 2059 c-27 -4 -71 -21 -97 -38 l-49 -30 0 29 0 30 -85 0 -85 0
0 -360 0 -360 85 0 85 0 0 245 0 244 34 35 c65 65 153 72 200 16 37 -44 46
-111 46 -335 l0 -205 89 0 88 0 -8 43 c-4 23 -8 141 -9 263 0 248 -7 283 -66
352 -51 60 -135 86 -228 71z"/>
<path d="M2557 2059 c-38 -5 -94 -19 -125 -32 -63 -25 -62 -22 -47 -134 l6
-42 47 25 c49 25 130 44 188 44 80 0 144 -50 144 -113 0 -24 -2 -24 -87 -26
-89 -1 -169 -19 -233 -51 -46 -24 -108 -91 -116 -127 -3 -16 -7 -34 -10 -41
-7 -24 14 -102 36 -135 66 -97 237 -133 385 -83 l70 24 26 -24 c14 -13 29 -24
33 -24 4 0 34 23 67 52 l59 51 -21 23 c-31 33 -38 82 -39 253 0 87 -5 170 -12
192 -24 82 -110 152 -200 164 -87 12 -104 12 -171 4z m223 -480 l0 -80 -37
-16 c-47 -20 -147 -22 -190 -5 -56 24 -66 102 -17 143 29 23 91 38 167 39 l77
0 0 -81z"/>
<path d="M688 1793 c3 -306 11 -346 76 -409 77 -73 186 -83 299 -25 l57 30 0
-30 0 -29 85 0 85 0 0 360 0 360 -85 0 -85 0 0 -254 0 -254 -30 -26 c-65 -54
-176 -42 -211 24 -17 31 -19 59 -19 272 l0 238 -87 0 -88 0 3 -257z"/>
<path d="M378 1133 l-78 -4 0 -464 0 -464 48 -8 c73 -12 261 -8 322 6 132 32
246 115 299 219 46 90 65 273 40 381 -35 153 -159 273 -325 314 -68 17 -194
25 -306 20z m303 -194 c99 -43 150 -139 151 -283 0 -121 -21 -183 -84 -243
-55 -53 -149 -81 -228 -68 l-40 7 0 310 0 311 75 -6 c42 -4 98 -16 126 -28z"/>
<path d="M1465 928 c-120 -16 -219 -90 -273 -206 -24 -51 -27 -69 -27 -167 0
-98 3 -116 26 -166 49 -104 130 -166 247 -189 252 -50 452 114 452 370 0 243
-175 391 -425 358z m145 -170 c55 -28 85 -72 100 -144 21 -99 -21 -213 -92
-251 -44 -23 -132 -22 -182 2 -110 53 -146 223 -70 338 48 74 158 98 244 55z"/>
<path d="M2325 929 c-94 -10 -149 -35 -214 -93 -77 -71 -112 -161 -112 -286 0
-153 61 -259 185 -320 109 -54 275 -51 374 6 l42 25 -6 82 c-4 45 -8 84 -10
86 -3 3 -17 -7 -32 -21 -38 -36 -65 -48 -127 -58 -67 -11 -144 7 -182 41 -92
85 -83 290 15 356 68 45 197 39 274 -12 21 -14 38 -24 38 -23 0 2 7 41 14 87
l14 83 -44 19 c-55 25 -151 36 -229 28z"/>
<path d="M2955 929 c-184 -18 -291 -162 -226 -304 34 -75 113 -120 255 -144
38 -7 84 -18 103 -26 29 -12 33 -19 33 -49 0 -42 -28 -65 -88 -73 -62 -8 -177
16 -250 52 -37 19 -67 33 -68 32 -1 -1 -5 -36 -9 -79 -7 -73 -6 -77 16 -91 78
-50 268 -71 378 -43 121 31 181 89 189 181 6 79 -5 121 -44 165 -44 48 -84 67
-182 85 -149 28 -192 56 -172 110 12 33 46 45 124 45 74 0 140 -21 177 -56
l26 -25 24 72 24 71 -23 18 c-58 47 -173 71 -287 59z"/>
</g>
</svg>
